<svg height="499pt" viewBox="0 -38 499.9 499" width="499pt" xmlns="http://www.w3.org/2000/svg" xmlns:xlink="http://www.w3.org/1999/xlink"><linearGradient id="a"><stop offset="0" stop-color="#00efd1"/><stop offset="1" stop-color="#00acea"/></linearGradient><linearGradient id="b" gradientUnits="userSpaceOnUse" x1="177.9" x2="177.9" xlink:href="#a" y1="-19.865654" y2="433.900346"/><linearGradient id="c" gradientUnits="userSpaceOnUse" x1="258.96" x2="258.96" xlink:href="#a" y1="-19.865654" y2="433.900346"/><linearGradient id="d" gradientUnits="userSpaceOnUse" x1="350.776" x2="350.776" xlink:href="#a" y1="-19.865654" y2="433.900346"/><linearGradient id="e" gradientUnits="userSpaceOnUse" x1="444.415" x2="444.415" xlink:href="#a" y1="-19.865654" y2="433.900346"/><linearGradient id="f" gradientUnits="userSpaceOnUse" x1="249.949" x2="249.949" xlink:href="#a" y1="-19.865654" y2="433.900346"/><path d="m157.398438 255.179688c4.03125 0 8.5-1.820313 8.5-5.300782v-45.054687l24.066406 45.292969h-.078125c1.867187 3.398437 4.722656 5.058593 9.058593 5.058593 4.03125 0 7.953126-1.820312 7.953126-5.300781v-76.082031c0-3.578125-3.960938-5.179688-8-5.179688-3.738282 0-8 1.355469-8 5.179688v45l-21.636719-41.835938c-3.75-7.136719-6.464844-8.34375-12.027344-8.34375-4.035156 0-8.335937 1.640625-8.335937 5.300781v75.960938c0 3.644531 4.601562 5.304688 8.5 5.304688zm0 0" fill="url(#b)"/><path d="m239.054688 255.132812h41.667968c3.640625 0 5.300782-3.484374 5.300782-6.882812 0-4.289062-2.179688-7.117188-5.300782-7.117188h-32.824218v-23h17.492187c3.476563 0 5.296875-3.226562 5.296875-6.382812 0-3.273438-1.820312-6.617188-5.296875-6.617188h-17.492187v-22h32.824218c3.121094 0 5.300782-3.324218 5.300782-7.617187 0-3.398437-1.660157-7.382813-5.300782-7.382813h-41.667968c-3.453126 0-7.15625 2.144532-7.15625 5.785157v75.964843c0 3.636719 3.703124 5.25 7.15625 5.25zm0 0" fill="url(#c)"/><path d="m323.085938 250.375c1.21875 4.0625 6.378906 5.507812 10.425781 5.507812 4.433593 0 9.308593-1.710937 10.199219-5.535156l7.117187-29.566406 7.007813 29.5625c.894531 3.828125 5.769531 5.539062 10.199218 5.539062 4.15625 0 9.074219-1.445312 10.425782-5.492187l23.175781-73.621094c.160156-.507812.246093-1.03125.257812-1.5625 0-3.710937-5.492187-6.585937-10.214843-6.585937-2.976563 0-4.9375 1.210937-5.511719 3.398437l-17.96875 61.648438-9.5-38.914063c-.8125-3.394531-4.742188-4.601562-7.859375-4.601562-3.324219 0-7.164063 1.207031-7.976563 4.597656l-9.503906 38.914062-17.972656-61.628906c-.582031-2.199218-2.539063-3.417968-5.519531-3.417968-4.722657 0-10.214844 2.878906-10.214844 6.589843.011718.527344.097656 1.046875.257812 1.550781zm0 0" fill="url(#d)"/><path d="m443.539062 241.535156c-7.125 0-11-3.261718-14.125-5.878906-2-1.679688-3.730468-3.132812-5.773437-3.132812-3.960937 0-7.171875 5.257812-7.171875 8.691406 0 7.085937 11.777344 15.015625 27.539062 15.015625 17.488282 0 28.355469-9.925781 28.355469-25.902344 0-18.246094-13.402343-23.933594-24.164062-28.5-7.195313-3.050781-13.410157-5.6875-13.410157-11.292969 0-5.410156 4.640626-8.511718 12.726563-8.511718 4.121094-.089844 8.191406.933593 11.777344 2.96875 1.320312.835937 2.820312 1.339843 4.375 1.480468 4.601562 0 6.585937-5.679687 6.585937-8.578125 0-7.785156-14.292968-9.863281-22.738281-9.863281-13.988281 0-28.941406 6.28125-28.941406 23.910156 0 15.773438 11.835937 21.027344 22.277343 25.664063 8.207032 3.648437 15.296876 6.792969 15.296876 14.246093 0 7.144532-6.515626 9.683594-12.609376 9.683594zm0 0" fill="url(#e)"/><path d="m491.800781 135.132812h-82.855469c-14.980468-39-40.546874-71.199218-74.226562-95.269531-35.84375-25.707031-78.863281-39.492187-122.972656-39.414062-116.757813 0-211.746094 94.960937-211.746094 211.71875 0 116.757812 94.988281 211.730469 211.746094 211.730469 44.101562.054687 87.105468-13.75 122.9375-39.460938 33.699218-24.066406 59.277344-56.304688 74.265625-95.296875h82.851562c2.105469.058594 4.148438-.726563 5.667969-2.179687 1.523438-1.457032 2.398438-3.460938 2.429688-5.566407v-138.515625c-.03125-2.105468-.90625-4.109375-2.429688-5.566406-1.519531-1.453125-3.5625-2.238281-5.667969-2.179688zm-100.140625 0h-68.648437c2.023437-1.777343 3.8125-3.808593 5.316406-6.046874 3.761719-6.035157 4.382813-13.519532 1.660156-20.089844l-1.011719-2.507813c-3.539062-8.597656-12.054687-14.085937-21.34375-13.753906l-34.617187 1.324219c-2.0625.078125-3.933594-1.203125-4.605469-3.152344s.011719-4.109375 1.679688-5.320312l20.316406-14.699219c2.652344-1.921875 4.808594-4.441407 6.300781-7.351563l11.199219-21.9375c6.03125 3.453125 11.878906 7.222656 17.511719 11.289063 29.230469 20.792969 52.15625 49.257812 66.246093 82.246093zm-97.988281-100.84375-11.21875 21.964844c-.335937.660156-.824219 1.230469-1.421875 1.664063l-20.316406 14.699219c-7.382813 5.34375-10.398438 14.886718-7.425782 23.5 2.972657 8.613281 11.234376 14.265624 20.339844 13.917968l34.617188-1.332031c2.574218-.085937 4.933594 1.433594 5.921875 3.8125l1.011719 2.472656c.746093 1.820313.574218 3.886719-.460938 5.558594s-2.804688 2.75-4.765625 2.894531l-50.863281 3.941406c-5.875.441407-11.304688 2.753907-15.101563 7.753907h-60.054687c2.683594-5.019531 3.929687-10.683594 3.597656-16.367188l-.054688-.964843c-.929687-14.179688-11.511718-25.84375-25.53125-28.140626-3.273437-.527343-6.261718-2.167968-8.464843-4.644531l-38.324219-43.085937c54.808594-31.121094 121.246094-33.96875 178.515625-7.644532zm-171.773437 168.761719c-2.199219-3.320312-3.03125-7.359375-2.320313-11.28125l2.320313-10.828125zm-20.5-152.511719 40.128906 45.101563c4.664062 5.234375 10.996094 8.691406 17.921875 9.792969 6.617187 1.078125 11.617187 6.582031 12.054687 13.273437l.054688.898438c.25 4.140625-1.304688 8.1875-4.265625 11.089843-2.960938 2.902344-7.039063 4.378907-11.171875 4.046876l-13.46875-.957032c-3.789063-.21875-7.585938.238282-11.210938 1.347656h-1.515625c-2.902343-.046874-5.59375 1.496094-7.015625 4.027344-6.304687 4.351563-10.714844 10.941406-12.332031 18.429688l-6.617187 30.859375c-2.8125 12.921875 3.117187 26.167969 14.625 32.679687l3.3125 1.878906v58.378907c.015624 2.101562.878906 4.101562 2.386718 5.558593 1.507813 1.460938 3.542969 2.246094 5.640625 2.1875h68.546875c2.777344 4 4.8125 6.113282 6.039063 7.914063 2.773437 4.082031 6.820312 7.132813 11.507812 8.671875l9.738281 3.167969c2.15625.695312 3.753907 2.523437 4.164063 4.75.40625 2.230469-.441406 4.503906-2.210937 5.921875-14.339844 11.433594-33.300782 26.175781-43.328126 33.945312-8.226562 6.402344-13.503906 15.863282-14.628906 26.222656l-2.453125 23.0625c-13.1875-3.078124-26.015625-7.527343-38.277343-13.273437l-3.988282-12.515625c-.457031-1.4375-1.144531-2.789062-2.03125-4.007812l-44.953125-61.664063c-3.09375-4.242187-4.210937-9.609375-3.070312-14.734375 8.375-37.535156 8.375-38.734375 8.375-40.007812 0-2.765626 0-3.265626-17.925781-34.078126-8.839844-15.195312-18.691407-31.902343-23.78125-40.5-1.15625-1.957031-1.9375-4.113281-2.296876-6.359374l-6.851562-42.125c14.796875-33.53125 38.660156-62.269532 68.898438-82.984376zm-85.398438 161.59375c-.003906-15.597656 1.855469-31.136718 5.546875-46.292968l2.011719 12.378906c.679687 4.210938 2.144531 8.257812 4.320312 11.925781 20.65625 34.945313 35.476563 60.5 39.183594 67.542969-.652344 3.316406-2.496094 12.109375-7.695312 35.421875-2.144532 9.613281-.046876 19.683594 5.753906 27.644531l40.824218 56c-56.03125-36-89.917968-98.019531-89.945312-164.621094zm309.382812 159.402344c-33.132812 23.726563-72.886718 36.4375-113.636718 36.34375-9.597656-.003906-19.183594-.707031-28.675782-2.109375l2.59375-24.347656c.65625-6.035156 3.730469-11.542969 8.519532-15.269531 12.285156-9.523438 29.808594-23.164063 43.5-34.078125 6.378906-5.089844 9.441406-13.273438 7.972656-21.296875-1.46875-8.023438-7.230469-14.59375-14.996094-17.09375l-9.738281-3.261719c-.84375-.101563-1.601563-.574219-2.058594-1.292969h137.738281c.707032 1 1.476563 2.324219 2.347657 3.335938l19.414062 22.46875c-13.71875 22.207031-31.730469 41.449218-52.980469 56.601562zm61.273438-71.652344-9.316406-10.75h14.324218c-1.5625 4-3.234374 7.226563-5.007812 10.753907zm97.242188-26.75h-346v-122h346zm0 0" fill="url(#f)"/></svg>